<svg width="340" height="340" viewBox="0 0 340 340" xmlns="http://www.w3.org/2000/svg">
  <defs>
    <linearGradient id="cy" x1="0" y1="0" x2="1" y2="1"><stop offset="0" stop-color="#2ff3ff"/><stop offset="1" stop-color="#1fd8e6"/></linearGradient>
    <linearGradient id="mg" x1="0" y1="0" x2="1" y2="1"><stop offset="0" stop-color="#f241da"/><stop offset="1" stop-color="#d92fc0"/></linearGradient>
    <clipPath id="diaL"><polygon points="170,0 340,170 170,340 0,170"/></clipPath>
  </defs>
  <g transform="translate(170,170)">
    <rect x="-85" y="-91" width="170" height="12" fill="#2ff3ff"/>
    <rect x="-85" y="79" width="170" height="12" fill="#f241da"/>
  </g>
  <g clip-path="url(#diaL)">
    <rect x="85" y="0" width="34" height="340" fill="#ffffff"/>
    <rect x="221" y="0" width="34" height="340" fill="#ffffff"/>
  </g>
  <g transform="translate(170,170)">
    <rect x="-85" y="-16" width="170" height="32" fill="#ffffff"/>
    <line x1="-170" y1="0" x2="0" y2="-170" stroke="url(#cy)" stroke-width="12" stroke-linecap="round"/>
    <line x1="0" y1="-170" x2="170" y2="0" stroke="url(#cy)" stroke-width="12" stroke-linecap="round"/>
    <line x1="170" y1="0" x2="0" y2="170" stroke="url(#mg)" stroke-width="12" stroke-linecap="round"/>
    <line x1="0" y1="170" x2="-170" y2="0" stroke="url(#mg)" stroke-width="12" stroke-linecap="round"/>
    <rect x="-170" y="-6" width="85" height="12" rx="6" fill="#f241da"/>
    <rect x="85" y="-6" width="85" height="12" rx="6" fill="#f241da"/>
  </g>
</svg>
