<svg version="1.2" xmlns="http://www.w3.org/2000/svg" viewBox="0 0 1000 1000" width="1000" height="1000">
	<defs>
		<clipPath clipPathUnits="userSpaceOnUse" id="cp1">
			<path d="m500 70l430 430-430 430-430-430z"/>
		</clipPath>
		<clipPath clipPathUnits="userSpaceOnUse" id="cp2">
			<path d="m500 70l430 430-430 430-430-430z"/>
		</clipPath>
	</defs>
	<style>
		.s0 { fill: #141a2e } 
		.s1 { fill: #0d6675 } 
		.s2 { fill: #7a2872 } 
		.s3 { fill: #0a4a55 } 
		.s4 { fill: #4a1545 } 
		.s5 { fill: #1fb3c8 } 
		.s6 { fill: #c249b3 } 
		.s7 { fill: #2ff3ff } 
		.s8 { fill: #f241da } 
		.s9 { fill: #ffffff } 
		.s10 { fill: none;stroke: #2ff3ff;stroke-width: 30 } 
		.s11 { fill: none;stroke: #f241da;stroke-width: 30 } 
	</style>
	
	<g id="Clip-Path" clip-path="url(#cp1)">
		<g>
			<path fill-rule="evenodd" class="s1" d="m70 68h860v434h-860z"/>
			<path fill-rule="evenodd" class="s2" d="m70 498h860v434h-860z"/>
			<path class="s3" d="m68 500h219v-217l213-215z"/>
			<path class="s3" d="m932 500h-219v-217l-213-215z"/>
			<path class="s4" d="m68 500h219v217l213 215z"/>
			<path class="s4" d="m932 500h-219v217l-213 215z"/>
			<path class="s1" d="m287 283h426l-213-215z"/>
			<path class="s2" d="m287 717h426l-213 215z"/>
			<path fill-rule="evenodd" class="s5" d="m287 283h426v185h-426z"/>
			<path fill-rule="evenodd" class="s6" d="m287 532h426v185h-426z"/>
		</g>
	</g>
	<path fill-rule="evenodd" class="s7" d="m287 283h426v30h-426z"/>
	<path fill-rule="evenodd" class="s8" d="m287 687h426v30h-426z"/>
	<g id="Clip-Path" clip-path="url(#cp2)">
		<g>
			<path fill-rule="evenodd" class="s9" d="m287 70h86v860h-86z"/>
			<path fill-rule="evenodd" class="s9" d="m627 70h86v860h-86z"/>
		</g>
	</g>
	<path fill-rule="evenodd" class="s9" d="m287 470h426v60h-426z"/>
	<path fill-rule="evenodd" class="s10" d="m500 70l430 430-430 430-430-430z"/>
	<path class="s11" d="m930 500l-430 430-430-430"/>
	<path fill-rule="evenodd" class="s8" d="m287 479.72v30.56h-219v-30.56z"/>
	<path id="Layer copy" fill-rule="evenodd" class="s8" d="m222.56 632.86l-21.19 21.24-153.59-153.3 21.19-21.23z"/>
	<path fill-rule="evenodd" class="s8" d="m931 480v30h-218v-30z"/>
	<path id="Layer copy 2" fill-rule="evenodd" class="s8" d="m930.99 478.93l21.02 21.41-154.87 152.01-21.01-21.41z"/>
</svg>